<svg width="49" height="46" viewBox="0 0 49 46" fill="none" xmlns="http://www.w3.org/2000/svg">
<rect y="0.13443" width="48.3984" height="45.6442" rx="9.71154" fill="#1977F2"/>
<path d="M13.9773 20.3522C15.5415 20.3522 16.9585 20.8864 18.0355 21.6438C18.488 21.9618 18.8966 22.3314 19.2357 22.7338C19.3014 22.8157 19.2432 22.9372 19.1382 22.9372H10.4422C9.67327 22.9372 9.28791 22.0829 9.91909 21.6438C10.9961 20.8864 12.4131 20.3522 13.9773 20.3522ZM13.9773 15.1823C14.6873 15.1823 15.3682 15.4546 15.8702 15.9394C16.3722 16.4242 16.6543 17.0817 16.6543 17.7672C16.6543 18.4528 16.3722 19.1103 15.8702 19.5951C15.3682 20.0799 14.6873 20.3522 13.9773 20.3522C13.2674 20.3522 12.5865 20.0799 12.0844 19.5951C11.5824 19.1103 11.3004 18.4528 11.3004 17.7672C11.3004 17.0817 11.5824 16.4242 12.0844 15.9394C12.5865 15.4546 13.2674 15.1823 13.9773 15.1823ZM5.94652 23.7988C5.79448 23.7989 5.64498 23.8365 5.51221 23.908C5.37944 23.9796 5.2678 24.0827 5.18788 24.2076C5.10797 24.3325 5.06243 24.475 5.05559 24.6217C5.04875 24.7684 5.08083 24.9143 5.1488 25.0456L7.82573 30.2156C7.89978 30.3587 8.01363 30.479 8.15452 30.5632C8.29541 30.6473 8.45779 30.692 8.62345 30.692H19.3312C19.4969 30.692 19.6592 30.6473 19.8001 30.5632C19.941 30.479 20.0549 30.3587 20.1289 30.2156L22.8058 25.0456C22.8738 24.9143 22.9059 24.7684 22.899 24.6217C22.8922 24.475 22.8467 24.3325 22.7668 24.2076C22.6868 24.0827 22.5752 23.9796 22.4424 23.908C22.3097 23.8365 22.1602 23.7989 22.0081 23.7988H5.94652Z" fill="white"/>
<path d="M34.7946 20.3522C36.3281 20.3522 37.7173 20.8864 38.7732 21.6438C39.2167 21.9618 39.6174 22.3314 39.9498 22.7338C40.0147 22.8162 39.956 22.9372 39.8511 22.9372H31.3464C30.5802 22.9372 30.1911 22.0872 30.8159 21.6438C31.8718 20.8864 33.261 20.3522 34.7946 20.3522ZM34.7946 15.1823C35.4906 15.1823 36.1581 15.4546 36.6503 15.9394C37.1425 16.4242 37.419 17.0817 37.419 17.7672C37.419 18.4528 37.1425 19.1103 36.6503 19.5951C36.1581 20.0799 35.4906 20.3522 34.7946 20.3522C34.0985 20.3522 33.431 20.0799 32.9388 19.5951C32.4466 19.1103 32.1701 18.4528 32.1701 17.7672C32.1701 17.0817 32.4466 16.4242 32.9388 15.9394C33.431 15.4546 34.0985 15.1823 34.7946 15.1823ZM26.9212 23.7988C26.7722 23.7989 26.6256 23.8365 26.4954 23.908C26.3653 23.9796 26.2558 24.0827 26.1775 24.2076C26.0991 24.3325 26.0545 24.475 26.0478 24.6217C26.0411 24.7684 26.0725 24.9143 26.1391 25.0456L28.7636 30.2156C28.8362 30.3587 28.9478 30.479 29.0859 30.5632C29.2241 30.6473 29.3832 30.692 29.5457 30.692H40.0434C40.2059 30.692 40.365 30.6473 40.5032 30.5632C40.6413 30.479 40.7529 30.3587 40.8255 30.2156L43.45 25.0456C43.5166 24.9143 43.5481 24.7684 43.5413 24.6217C43.5346 24.475 43.49 24.3325 43.4116 24.2076C43.3333 24.0827 43.2238 23.9796 43.0937 23.908C42.9635 23.8365 42.8169 23.7989 42.6679 23.7988H26.9212Z" fill="white"/>
</svg>
