<svg width="139" height="39" viewBox="0 0 139 39" fill="none" xmlns="http://www.w3.org/2000/svg">
<path d="M45.3983 6.93586C46.5875 6.93586 47.6266 7.17154 48.5158 7.64291C49.405 8.11428 50.0906 8.77848 50.5727 9.63551C51.0655 10.4818 51.3119 11.4621 51.3119 12.5762C51.3119 13.6796 51.0655 14.6599 50.5727 15.5169C50.0906 16.3739 49.3996 17.0381 48.4997 17.5095C47.6105 17.9809 46.5767 18.2166 45.3983 18.2166H41.1721V6.93586H45.3983ZM45.2216 15.8383C46.2607 15.8383 47.0695 15.5544 47.648 14.9866C48.2265 14.4188 48.5158 13.6154 48.5158 12.5762C48.5158 11.5371 48.2265 10.7282 47.648 10.1497C47.0695 9.57123 46.2607 9.28199 45.2216 9.28199H43.9199V15.8383H45.2216ZM55.5953 9.13736V11.4192H59.2752V13.5404H55.5953V16.015H59.7573V18.2166H52.8475V6.93586H59.7573V9.13736H55.5953ZM68.4511 11.4353V13.7171H61.3806V11.4353H68.4511ZM77.6922 12.4316C78.3457 12.5708 78.8706 12.8976 79.267 13.4118C79.6634 13.9153 79.8616 14.4938 79.8616 15.1473C79.8616 16.09 79.5295 16.8399 78.8653 17.397C78.2118 17.9434 77.2958 18.2166 76.1174 18.2166H70.8627V6.93586H75.9407C77.0869 6.93586 77.9815 7.19832 78.6242 7.72326C79.2777 8.24819 79.6045 8.9606 79.6045 9.86048C79.6045 10.5247 79.4277 11.0764 79.0742 11.5156C78.7314 11.9549 78.2707 12.2602 77.6922 12.4316ZM73.6106 11.4996H75.4104C75.8603 11.4996 76.2031 11.4031 76.4388 11.2103C76.6852 11.0068 76.8084 10.7122 76.8084 10.3265C76.8084 9.94083 76.6852 9.64622 76.4388 9.44268C76.2031 9.23913 75.8603 9.13736 75.4104 9.13736H73.6106V11.4996ZM75.6353 15.999C76.096 15.999 76.4495 15.8972 76.6959 15.6937C76.953 15.4794 77.0816 15.1741 77.0816 14.7777C77.0816 14.3813 76.9477 14.0707 76.6799 13.8457C76.4227 13.6207 76.0639 13.5082 75.6032 13.5082H73.6106V15.999H75.6353ZM88.4777 16.224H84.2675L83.5926 18.2166H80.7162L84.7978 6.93586H87.9795L92.0611 18.2166H89.1526L88.4777 16.224ZM87.7706 14.1028L86.3726 9.97297L84.9906 14.1028H87.7706ZM101.418 6.93586V9.13736H98.4295V18.2166H95.6816V9.13736H92.6927V6.93586H101.418ZM105.545 9.13736V11.4192H109.225V13.5404H105.545V16.015H109.707V18.2166H102.797V6.93586H109.707V9.13736H105.545ZM115.573 18.329C114.748 18.329 114.009 18.1951 113.355 17.9273C112.702 17.6595 112.177 17.2631 111.78 16.7382C111.395 16.2132 111.191 15.5812 111.17 14.842H114.094C114.137 15.2598 114.282 15.5812 114.528 15.8061C114.775 16.0204 115.096 16.1275 115.493 16.1275C115.9 16.1275 116.221 16.0365 116.457 15.8544C116.692 15.6615 116.81 15.3991 116.81 15.067C116.81 14.7884 116.714 14.5581 116.521 14.376C116.339 14.1939 116.109 14.0439 115.83 13.926C115.562 13.8082 115.176 13.6743 114.673 13.5243C113.944 13.2993 113.35 13.0744 112.889 12.8494C112.429 12.6244 112.032 12.2923 111.7 11.8531C111.368 11.4139 111.202 10.8407 111.202 10.1337C111.202 9.0838 111.582 8.26426 112.343 7.67505C113.104 7.07513 114.094 6.77516 115.316 6.77516C116.558 6.77516 117.56 7.07513 118.321 7.67505C119.081 8.26426 119.488 9.08915 119.542 10.1497H116.569C116.548 9.78549 116.414 9.5016 116.167 9.29806C115.921 9.0838 115.605 8.97667 115.219 8.97667C114.887 8.97667 114.619 9.06773 114.416 9.24985C114.212 9.42125 114.111 9.67301 114.111 10.0051C114.111 10.3693 114.282 10.6532 114.625 10.8568C114.968 11.0603 115.503 11.2799 116.232 11.5156C116.96 11.762 117.549 11.9977 117.999 12.2227C118.46 12.4477 118.856 12.7744 119.188 13.2029C119.521 13.6314 119.687 14.1831 119.687 14.8581C119.687 15.5008 119.521 16.0847 119.188 16.6096C118.867 17.1345 118.396 17.5524 117.774 17.863C117.153 18.1737 116.419 18.329 115.573 18.329Z" fill="#F5F5F5"/>
<path d="M41.7956 28.0839C41.9756 27.769 42.2391 27.5119 42.5862 27.3126C42.9333 27.1134 43.3286 27.0137 43.7721 27.0137C44.2478 27.0137 44.6752 27.1262 45.0544 27.3512C45.4337 27.5762 45.7326 27.8943 45.9511 28.3057C46.1697 28.7107 46.2789 29.1831 46.2789 29.723C46.2789 30.2565 46.1697 30.7322 45.9511 31.15C45.7326 31.5678 45.4305 31.8924 45.0448 32.1238C44.6656 32.3552 44.2413 32.4709 43.7721 32.4709C43.3157 32.4709 42.914 32.3713 42.5669 32.172C42.2262 31.9727 41.9691 31.7188 41.7956 31.4103V32.3841H40.9182V25.2493H41.7956V28.0839ZM45.3823 29.723C45.3823 29.3245 45.3019 28.9774 45.1412 28.6817C44.9805 28.3861 44.762 28.1611 44.4856 28.0068C44.2156 27.8525 43.9167 27.7754 43.5889 27.7754C43.2675 27.7754 42.9686 27.8558 42.6922 28.0165C42.4223 28.1707 42.2037 28.3989 42.0366 28.701C41.8759 28.9967 41.7956 29.3406 41.7956 29.7327C41.7956 30.1312 41.8759 30.4815 42.0366 30.7836C42.2037 31.0793 42.4223 31.3075 42.6922 31.4682C42.9686 31.6224 43.2675 31.6996 43.5889 31.6996C43.9167 31.6996 44.2156 31.6224 44.4856 31.4682C44.762 31.3075 44.9805 31.0793 45.1412 30.7836C45.3019 30.4815 45.3823 30.128 45.3823 29.723ZM51.9847 27.1005L48.8029 34.8716H47.8966L48.9379 32.3263L46.8071 27.1005H47.7809L49.4393 31.3814L51.0783 27.1005H51.9847ZM56.3145 26.3774V28.6239H58.7635V29.347H56.3145V31.661H59.0527V32.3841H55.4371V25.6543H59.0527V26.3774H56.3145ZM64.0441 28.4793V29.2217H60.1971V28.4793H64.0441ZM71.2443 25.6639L68.7086 32.3841H67.6962L65.1605 25.6639H66.0957L68.2072 31.4585L70.3187 25.6639H71.2443ZM77.49 32.3841H76.6126L73.0838 27.033V32.3841H72.2064V25.6543H73.0838L76.6126 30.9957V25.6543H77.49V32.3841ZM83.1219 25.6639V26.3774H81.29V32.3841H80.4126V26.3774H78.571V25.6639H83.1219ZM86.3327 32.4516C85.8892 32.4516 85.4907 32.3745 85.1371 32.2202C84.79 32.0595 84.5169 31.841 84.3176 31.5646C84.1183 31.2818 84.0155 30.9571 84.0091 30.5908H84.9443C84.9764 30.9057 85.105 31.1725 85.33 31.391C85.5614 31.6031 85.8956 31.7092 86.3327 31.7092C86.7505 31.7092 87.0783 31.6064 87.3161 31.4007C87.5604 31.1885 87.6825 30.9186 87.6825 30.5908C87.6825 30.3337 87.6118 30.1248 87.4704 29.9641C87.329 29.8034 87.1522 29.6812 86.9401 29.5977C86.728 29.5141 86.442 29.4241 86.082 29.3277C85.6385 29.212 85.2818 29.0963 85.0118 28.9806C84.7483 28.8649 84.5201 28.6849 84.3272 28.4407C84.1408 28.19 84.0476 27.8558 84.0476 27.438C84.0476 27.0716 84.1408 26.747 84.3272 26.4642C84.5136 26.1813 84.774 25.9628 85.1082 25.8085C85.4489 25.6543 85.8378 25.5771 86.2748 25.5771C86.9048 25.5771 87.419 25.7346 87.8175 26.0496C88.2225 26.3645 88.4506 26.7823 88.5021 27.303H87.5379C87.5058 27.0459 87.3708 26.8209 87.1329 26.6281C86.8951 26.4288 86.5802 26.3292 86.1881 26.3292C85.8217 26.3292 85.5228 26.4256 85.2914 26.6184C85.06 26.8048 84.9443 27.0684 84.9443 27.409C84.9443 27.6533 85.0118 27.8525 85.1468 28.0068C85.2882 28.1611 85.4585 28.28 85.6578 28.3636C85.8635 28.4407 86.1495 28.5307 86.5159 28.6335C86.9594 28.7556 87.3161 28.8778 87.5861 28.9999C87.8561 29.1156 88.0875 29.2988 88.2803 29.5495C88.4731 29.7937 88.5695 30.128 88.5695 30.5522C88.5695 30.88 88.4828 31.1885 88.3092 31.4778C88.1357 31.767 87.8786 32.0017 87.5379 32.1816C87.1972 32.3616 86.7955 32.4516 86.3327 32.4516ZM92.1034 29.0192C92.1034 28.3636 92.2512 27.7754 92.5469 27.2548C92.8425 26.7277 93.2443 26.3163 93.7521 26.0206C94.2663 25.725 94.8351 25.5771 95.4586 25.5771C96.1914 25.5771 96.831 25.7539 97.3773 26.1074C97.9237 26.4609 98.3222 26.9623 98.5729 27.6115H97.5219C97.3355 27.2066 97.0656 26.8948 96.7121 26.6763C96.365 26.4577 95.9471 26.3485 95.4586 26.3485C94.9894 26.3485 94.5684 26.4577 94.1956 26.6763C93.8228 26.8948 93.5303 27.2066 93.3182 27.6115C93.1061 28.01 93 28.4793 93 29.0192C93 29.5527 93.1061 30.0219 93.3182 30.4269C93.5303 30.8254 93.8228 31.1339 94.1956 31.3525C94.5684 31.571 94.9894 31.6803 95.4586 31.6803C95.9471 31.6803 96.365 31.5742 96.7121 31.3621C97.0656 31.1436 97.3355 30.8318 97.5219 30.4269H98.5729C98.3222 31.0696 97.9237 31.5678 97.3773 31.9213C96.831 32.2684 96.1914 32.442 95.4586 32.442C94.8351 32.442 94.2663 32.2973 93.7521 32.0081C93.2443 31.7124 92.8425 31.3042 92.5469 30.7836C92.2512 30.263 92.1034 29.6748 92.1034 29.0192ZM102.183 32.4709C101.688 32.4709 101.238 32.3584 100.833 32.1334C100.435 31.9085 100.12 31.5903 99.8886 31.1789C99.6636 30.7611 99.5511 30.279 99.5511 29.7327C99.5511 29.1927 99.6668 28.7171 99.8982 28.3057C100.136 27.8879 100.457 27.5697 100.862 27.3512C101.267 27.1262 101.72 27.0137 102.222 27.0137C102.723 27.0137 103.176 27.1262 103.581 27.3512C103.986 27.5697 104.304 27.8847 104.536 28.2961C104.774 28.7074 104.893 29.1863 104.893 29.7327C104.893 30.279 104.77 30.7611 104.526 31.1789C104.288 31.5903 103.964 31.9085 103.552 32.1334C103.141 32.3584 102.685 32.4709 102.183 32.4709ZM102.183 31.6996C102.498 31.6996 102.794 31.6256 103.07 31.4778C103.347 31.33 103.568 31.1082 103.736 30.8125C103.909 30.5168 103.996 30.1569 103.996 29.7327C103.996 29.3084 103.912 28.9485 103.745 28.6528C103.578 28.3571 103.36 28.1386 103.09 27.9972C102.82 27.8493 102.527 27.7754 102.212 27.7754C101.891 27.7754 101.595 27.8493 101.325 27.9972C101.062 28.1386 100.85 28.3571 100.689 28.6528C100.528 28.9485 100.448 29.3084 100.448 29.7327C100.448 30.1633 100.525 30.5265 100.679 30.8222C100.84 31.1178 101.052 31.3396 101.316 31.4874C101.579 31.6288 101.868 31.6996 102.183 31.6996ZM106.326 32.442C106.159 32.442 106.017 32.3841 105.902 32.2684C105.786 32.1527 105.728 32.0113 105.728 31.8442C105.728 31.6771 105.786 31.5356 105.902 31.4199C106.017 31.3042 106.159 31.2464 106.326 31.2464C106.486 31.2464 106.621 31.3042 106.731 31.4199C106.846 31.5356 106.904 31.6771 106.904 31.8442C106.904 32.0113 106.846 32.1527 106.731 32.2684C106.621 32.3841 106.486 32.442 106.326 32.442Z" fill="#F5F5F5"/>
<rect y="0.216629" width="32.1387" height="32.1387" rx="8.03468" fill="#1977F2"/>
<path d="M9.35942 14.4379C10.437 14.4379 11.4131 14.8281 12.155 15.3813C12.4667 15.6135 12.7482 15.8836 12.9818 16.1775C13.028 16.2385 12.9845 16.326 12.9079 16.326H6.9619C6.40611 16.326 6.11658 15.7112 6.56383 15.3813C7.30576 14.8281 8.28188 14.4379 9.35942 14.4379ZM9.35942 10.6616C9.8485 10.6616 10.3175 10.8605 10.6634 11.2146C11.0092 11.5687 11.2035 12.0489 11.2035 12.5497C11.2035 13.0505 11.0092 13.5307 10.6634 13.8848C10.3175 14.2389 9.8485 14.4379 9.35942 14.4379C8.87035 14.4379 8.4013 14.2389 8.05548 13.8848C7.70965 13.5307 7.51536 13.0505 7.51536 12.5497C7.51536 12.0489 7.70965 11.5687 8.05548 11.2146C8.4013 10.8605 8.87035 10.6616 9.35942 10.6616ZM3.82725 16.9554C3.72251 16.9555 3.61953 16.9829 3.52806 17.0352C3.4366 17.0874 3.3597 17.1627 3.30465 17.254C3.2496 17.3452 3.21823 17.4493 3.21351 17.5565C3.2088 17.6636 3.2309 17.7702 3.27772 17.8661L5.12178 21.6424C5.17279 21.7469 5.25122 21.8349 5.34827 21.8963C5.44533 21.9578 5.55718 21.9904 5.67131 21.9905H13.0475C13.1617 21.9904 13.2735 21.9578 13.3706 21.8963C13.4676 21.8349 13.5461 21.7469 13.5971 21.6424L15.4411 17.8661C15.4879 17.7702 15.51 17.6636 15.5053 17.5565C15.5006 17.4493 15.4692 17.3452 15.4142 17.254C15.3591 17.1627 15.2822 17.0874 15.1908 17.0352C15.0993 16.9829 14.9963 16.9555 14.8916 16.9554H3.82725Z" fill="white"/>
<path d="M22.8971 14.4111C23.9535 14.4111 24.9105 14.7985 25.6379 15.3478C25.9434 15.5784 26.2194 15.8465 26.4484 16.1384C26.4939 16.1992 26.4505 16.2858 26.3746 16.2858H20.555C20.0044 16.2858 19.7152 15.6774 20.1563 15.3478C20.8837 14.7985 21.8407 14.4111 22.8971 14.4111ZM22.8971 10.6616C23.3766 10.6616 23.8364 10.8591 24.1755 11.2107C24.5145 11.5622 24.705 12.0391 24.705 12.5363C24.705 13.0335 24.5145 13.5104 24.1755 13.862C23.8364 14.2136 23.3766 14.4111 22.8971 14.4111C22.4176 14.4111 21.9578 14.2136 21.6187 13.862C21.2797 13.5104 21.0892 13.0335 21.0892 12.5363C21.0892 12.0391 21.2797 11.5622 21.6187 11.2107C21.9578 10.8591 22.4176 10.6616 22.8971 10.6616ZM17.4734 16.9108C17.3707 16.9108 17.2698 16.9381 17.1801 16.99C17.0904 17.0418 17.015 17.1166 16.961 17.2072C16.9071 17.2978 16.8763 17.4012 16.8717 17.5076C16.8671 17.6139 16.8888 17.7198 16.9347 17.815L18.7426 21.5645C18.7926 21.6683 18.8695 21.7556 18.9646 21.8167C19.0598 21.8777 19.1694 21.9101 19.2813 21.9101H26.5129C26.6248 21.9101 26.7345 21.8777 26.8296 21.8167C26.9248 21.7556 27.0016 21.6683 27.0517 21.5645L28.8596 17.815C28.9055 17.7198 28.9271 17.6139 28.9225 17.5076C28.9179 17.4012 28.8871 17.2978 28.8332 17.2072C28.7792 17.1166 28.7038 17.0418 28.6141 16.99C28.5245 16.9381 28.4235 16.9108 28.3208 16.9108H17.4734Z" fill="white"/>
</svg>
