<svg width="193" height="50" viewBox="0 0 193 50" fill="none" xmlns="http://www.w3.org/2000/svg">
<rect y="4.13443" width="48.3984" height="45.6442" rx="9.71154" fill="#1977F2"/>
<path d="M13.9771 24.3522C15.5414 24.3522 16.9584 24.8864 18.0354 25.6438C18.4878 25.9618 18.8965 26.3314 19.2355 26.7338C19.3013 26.8157 19.243 26.9372 19.138 26.9372H10.442C9.6731 26.9372 9.28774 26.0829 9.91892 25.6438C10.9959 24.8864 12.4129 24.3522 13.9771 24.3522ZM13.9771 19.1823C14.6871 19.1823 15.368 19.4546 15.87 19.9394C16.372 20.4242 16.6541 21.0817 16.6541 21.7672C16.6541 22.4528 16.372 23.1103 15.87 23.5951C15.368 24.0799 14.6871 24.3522 13.9771 24.3522C13.2672 24.3522 12.5863 24.0799 12.0843 23.5951C11.5823 23.1103 11.3002 22.4528 11.3002 21.7672C11.3002 21.0817 11.5823 20.4242 12.0843 19.9394C12.5863 19.4546 13.2672 19.1823 13.9771 19.1823ZM5.94635 27.7988C5.79431 27.7989 5.64481 27.8365 5.51204 27.908C5.37927 27.9796 5.26763 28.0827 5.18771 28.2076C5.1078 28.3325 5.06226 28.475 5.05542 28.6217C5.04858 28.7684 5.08066 28.9143 5.14863 29.0456L7.82556 34.2156C7.89961 34.3587 8.01346 34.479 8.15435 34.5632C8.29524 34.6473 8.45762 34.692 8.62328 34.692H19.331C19.4967 34.692 19.6591 34.6473 19.7999 34.5632C19.9408 34.479 20.0547 34.3587 20.1287 34.2156L22.8057 29.0456C22.8736 28.9143 22.9057 28.7684 22.8989 28.6217C22.892 28.475 22.8465 28.3325 22.7666 28.2076C22.6867 28.0827 22.575 27.9796 22.4423 27.908C22.3095 27.8365 22.16 27.7989 22.0079 27.7988H5.94635Z" fill="white"/>
<path d="M34.7944 24.3522C36.3279 24.3522 37.7171 24.8864 38.773 25.6438C39.2166 25.9618 39.6172 26.3314 39.9497 26.7338C40.0145 26.8162 39.9558 26.9372 39.851 26.9372H31.3462C30.58 26.9372 30.1909 26.0872 30.8157 25.6438C31.8716 24.8864 33.2608 24.3522 34.7944 24.3522ZM34.7944 19.1823C35.4904 19.1823 36.158 19.4546 36.6501 19.9394C37.1423 20.4242 37.4188 21.0817 37.4188 21.7672C37.4188 22.4528 37.1423 23.1103 36.6501 23.5951C36.158 24.0799 35.4904 24.3522 34.7944 24.3522C34.0983 24.3522 33.4308 24.0799 32.9386 23.5951C32.4464 23.1103 32.1699 22.4528 32.1699 21.7672C32.1699 21.0817 32.4464 20.4242 32.9386 19.9394C33.4308 19.4546 34.0983 19.1823 34.7944 19.1823ZM26.9211 27.7988C26.772 27.7989 26.6254 27.8365 26.4953 27.908C26.3651 27.9796 26.2556 28.0827 26.1773 28.2076C26.0989 28.3325 26.0543 28.475 26.0476 28.6217C26.0409 28.7684 26.0723 28.9143 26.139 29.0456L28.7634 34.2156C28.836 34.3587 28.9476 34.479 29.0858 34.5632C29.2239 34.6473 29.3831 34.692 29.5455 34.692H40.0433C40.2057 34.692 40.3649 34.6473 40.503 34.5632C40.6411 34.479 40.7528 34.3587 40.8254 34.2156L43.4498 29.0456C43.5164 28.9143 43.5479 28.7684 43.5412 28.6217C43.5345 28.475 43.4898 28.3325 43.4115 28.2076C43.3331 28.0827 43.2237 27.9796 43.0935 27.908C42.9633 27.8365 42.8168 27.7989 42.6677 27.7988H26.9211Z" fill="white"/>
<path d="M59.5112 11.2411C61.5053 11.2411 63.2547 11.6309 64.7593 12.4104C66.2821 13.1899 67.4513 14.3048 68.2671 15.755C69.101 17.1872 69.518 18.855 69.518 20.7584C69.518 22.6619 69.101 24.3297 68.2671 25.7618C67.4513 27.1758 66.2821 28.2726 64.7593 29.0521C63.2547 29.8316 61.5053 30.2213 59.5112 30.2213H52.8763V11.2411H59.5112ZM59.3752 26.9855C61.3693 26.9855 62.9102 26.4416 63.9979 25.3539C65.0856 24.2662 65.6295 22.7344 65.6295 20.7584C65.6295 18.7824 65.0856 17.2415 63.9979 16.1357C62.9102 15.0118 61.3693 14.4498 59.3752 14.4498H56.6832V26.9855H59.3752ZM76.1746 14.3138V19.0725H82.5647V22.0908H76.1746V27.1214H83.3805V30.2213H72.3676V11.2139H83.3805V14.3138H76.1746ZM98.424 18.9093V22.118H86.8945V18.9093H98.424ZM113.462 20.4865C114.531 20.6859 115.41 21.2207 116.099 22.0908C116.788 22.961 117.133 23.958 117.133 25.082C117.133 26.0972 116.879 26.9945 116.371 27.774C115.882 28.5354 115.166 29.1337 114.223 29.5687C113.28 30.0038 112.165 30.2213 110.878 30.2213H102.693V11.2411H110.525C111.812 11.2411 112.918 11.4496 113.842 11.8665C114.785 12.2835 115.492 12.8636 115.963 13.6068C116.453 14.3501 116.697 15.1931 116.697 16.1357C116.697 17.2415 116.398 18.1661 115.8 18.9093C115.22 19.6526 114.441 20.1783 113.462 20.4865ZM106.5 19.0725H109.981C110.887 19.0725 111.585 18.8731 112.075 18.4743C112.564 18.0573 112.809 17.4682 112.809 16.7068C112.809 15.9454 112.564 15.3562 112.075 14.9393C111.585 14.5223 110.887 14.3138 109.981 14.3138H106.5V19.0725ZM110.334 27.1214C111.259 27.1214 111.975 26.9039 112.483 26.4688C113.008 26.0337 113.271 25.4174 113.271 24.6197C113.271 23.804 112.999 23.1695 112.455 22.7163C111.912 22.2449 111.177 22.0093 110.253 22.0093H106.5V27.1214H110.334ZM131.805 26.6048H124.245L122.995 30.2213H118.997L125.823 11.2139H130.255L137.08 30.2213H133.056L131.805 26.6048ZM130.772 23.5592L128.025 15.6191L125.279 23.5592H130.772ZM152.548 11.2411V14.3138H147.49V30.2213H143.683V14.3138H138.625V11.2411H152.548ZM159.132 14.3138V19.0725H165.523V22.0908H159.132V27.1214H166.338V30.2213H155.325V11.2139H166.338V14.3138H159.132ZM176.351 30.4117C175.028 30.4117 173.831 30.1851 172.762 29.7319C171.71 29.2787 170.877 28.6261 170.26 27.774C169.644 26.922 169.327 25.9159 169.308 24.7557H173.387C173.442 25.5352 173.714 26.1516 174.203 26.6048C174.711 27.058 175.4 27.2846 176.27 27.2846C177.158 27.2846 177.856 27.0761 178.363 26.6592C178.871 26.2241 179.125 25.6621 179.125 24.9732C179.125 24.4113 178.953 23.949 178.608 23.5864C178.264 23.2239 177.829 22.9429 177.303 22.7435C176.795 22.5259 176.088 22.2903 175.182 22.0365C173.949 21.6739 172.943 21.3204 172.164 20.976C171.402 20.6134 170.741 20.0786 170.179 19.3716C169.635 18.6465 169.363 17.6857 169.363 16.4892C169.363 15.3653 169.644 14.3864 170.206 13.5525C170.768 12.7186 171.556 12.0841 172.572 11.649C173.587 11.1958 174.747 10.9692 176.052 10.9692C178.01 10.9692 179.596 11.4496 180.811 12.4104C182.043 13.353 182.723 14.6764 182.85 16.3805H178.663C178.626 15.7278 178.345 15.1931 177.82 14.7761C177.312 14.341 176.632 14.1235 175.78 14.1235C175.037 14.1235 174.439 14.3138 173.986 14.6945C173.55 15.0752 173.333 15.6281 173.333 16.3533C173.333 16.8609 173.496 17.2869 173.822 17.6313C174.167 17.9576 174.584 18.2295 175.073 18.4471C175.581 18.6465 176.288 18.8822 177.194 19.1541C178.427 19.5166 179.433 19.8792 180.213 20.2418C180.992 20.6043 181.663 21.1482 182.225 21.8733C182.787 22.5984 183.068 23.5502 183.068 24.7285C183.068 25.7437 182.805 26.6863 182.279 27.5565C181.753 28.4267 180.983 29.1246 179.968 29.6503C178.953 30.1579 177.747 30.4117 176.351 30.4117Z" fill="black"/>
<path d="M99.9013 39.2634C100.155 38.8193 100.527 38.4567 101.016 38.1757C101.506 37.8947 102.063 37.7542 102.689 37.7542C103.359 37.7542 103.962 37.9129 104.497 38.2301C105.032 38.5474 105.453 38.996 105.761 39.5761C106.069 40.1472 106.224 40.8134 106.224 41.5748C106.224 42.3271 106.069 42.9978 105.761 43.587C105.453 44.1762 105.027 44.6339 104.483 44.9602C103.948 45.2865 103.35 45.4497 102.689 45.4497C102.045 45.4497 101.478 45.3092 100.989 45.0282C100.509 44.7472 100.146 44.3892 99.9013 43.9541V45.3273H98.6641V35.2661H99.9013V39.2634ZM104.959 41.5748C104.959 41.0128 104.846 40.5233 104.619 40.1064C104.393 39.6894 104.084 39.3722 103.695 39.1546C103.314 38.9371 102.892 38.8283 102.43 38.8283C101.977 38.8283 101.556 38.9416 101.166 39.1682C100.785 39.3858 100.477 39.7076 100.241 40.1336C100.015 40.5505 99.9013 41.0354 99.9013 41.5884C99.9013 42.1503 100.015 42.6443 100.241 43.0703C100.477 43.4873 100.785 43.8091 101.166 44.0357C101.556 44.2532 101.977 44.362 102.43 44.362C102.892 44.362 103.314 44.2532 103.695 44.0357C104.084 43.8091 104.393 43.4873 104.619 43.0703C104.846 42.6443 104.959 42.1458 104.959 41.5748ZM114.27 37.8766L109.783 48.8351H108.505L109.973 45.2457L106.968 37.8766H108.342L110.68 43.9133L112.991 37.8766H114.27ZM120.375 36.8569V40.0248H123.829V41.0445H120.375V44.3076H124.237V45.3273H119.138V35.8372H124.237V36.8569H120.375ZM131.275 39.8209V40.8678H125.85V39.8209H131.275ZM141.429 35.8508L137.853 45.3273H136.425L132.849 35.8508H134.168L137.146 44.0221L140.123 35.8508H141.429ZM150.236 45.3273H148.999L144.022 37.7814V45.3273H142.785V35.8372H144.022L148.999 43.3695V35.8372H150.236V45.3273ZM158.178 35.8508V36.8569H155.594V45.3273H154.357V36.8569H151.76V35.8508H158.178ZM162.705 45.4225C162.08 45.4225 161.518 45.3137 161.02 45.0962C160.53 44.8696 160.145 44.5614 159.864 44.1716C159.583 43.7728 159.438 43.3151 159.429 42.7984H160.748C160.793 43.2426 160.974 43.6187 161.291 43.9269C161.618 44.226 162.089 44.3756 162.705 44.3756C163.295 44.3756 163.757 44.2305 164.092 43.9405C164.437 43.6414 164.609 43.2607 164.609 42.7984C164.609 42.4359 164.509 42.1413 164.31 41.9147C164.11 41.6881 163.861 41.5158 163.562 41.398C163.263 41.2802 162.86 41.1533 162.352 41.0173C161.727 40.8542 161.224 40.691 160.843 40.5279C160.471 40.3647 160.149 40.1109 159.877 39.7665C159.615 39.413 159.483 38.9416 159.483 38.3525C159.483 37.8358 159.615 37.3781 159.877 36.9793C160.14 36.5804 160.507 36.2723 160.979 36.0547C161.459 35.8372 162.008 35.7284 162.624 35.7284C163.512 35.7284 164.237 35.9505 164.799 36.3946C165.37 36.8388 165.692 37.4279 165.765 38.1621H164.405C164.36 37.7996 164.169 37.4823 163.834 37.2104C163.499 36.9294 163.054 36.7889 162.502 36.7889C161.985 36.7889 161.563 36.9249 161.237 37.1968C160.911 37.4597 160.748 37.8313 160.748 38.3117C160.748 38.6561 160.843 38.9371 161.033 39.1546C161.233 39.3722 161.473 39.5399 161.754 39.6577C162.044 39.7665 162.447 39.8934 162.964 40.0384C163.589 40.2106 164.092 40.3828 164.473 40.5551C164.854 40.7182 165.18 40.9765 165.452 41.33C165.724 41.6745 165.86 42.1458 165.86 42.744C165.86 43.2063 165.737 43.6414 165.493 44.0493C165.248 44.4571 164.885 44.788 164.405 45.0418C163.925 45.2956 163.358 45.4225 162.705 45.4225ZM170.843 40.5822C170.843 39.6577 171.051 38.8283 171.468 38.0941C171.885 37.3509 172.452 36.7708 173.168 36.3538C173.893 35.9369 174.695 35.7284 175.574 35.7284C176.608 35.7284 177.51 35.9777 178.28 36.4762C179.051 36.9747 179.613 37.6817 179.966 38.5972H178.484C178.221 38.0262 177.84 37.5866 177.342 37.2784C176.852 36.9702 176.263 36.8161 175.574 36.8161C174.913 36.8161 174.319 36.9702 173.793 37.2784C173.268 37.5866 172.855 38.0262 172.556 38.5972C172.257 39.1592 172.107 39.8209 172.107 40.5822C172.107 41.3346 172.257 41.9962 172.556 42.5673C172.855 43.1293 173.268 43.5643 173.793 43.8725C174.319 44.1807 174.913 44.3348 175.574 44.3348C176.263 44.3348 176.852 44.1852 177.342 43.8861C177.84 43.5779 178.221 43.1383 178.484 42.5673H179.966C179.613 43.4737 179.051 44.1762 178.28 44.6747C177.51 45.1641 176.608 45.4089 175.574 45.4089C174.695 45.4089 173.893 45.2049 173.168 44.7971C172.452 44.3801 171.885 43.8045 171.468 43.0703C171.051 42.3361 170.843 41.5068 170.843 40.5822ZM185.057 45.4497C184.359 45.4497 183.725 45.291 183.154 44.9738C182.592 44.6566 182.148 44.2079 181.821 43.6278C181.504 43.0386 181.345 42.3588 181.345 41.5884C181.345 40.827 181.509 40.1562 181.835 39.5761C182.17 38.987 182.624 38.5383 183.195 38.2301C183.766 37.9129 184.405 37.7542 185.112 37.7542C185.819 37.7542 186.458 37.9129 187.029 38.2301C187.6 38.5383 188.048 38.9824 188.375 39.5625C188.71 40.1426 188.878 40.8179 188.878 41.5884C188.878 42.3588 188.706 43.0386 188.361 43.6278C188.026 44.2079 187.568 44.6566 186.988 44.9738C186.408 45.291 185.764 45.4497 185.057 45.4497ZM185.057 44.362C185.501 44.362 185.918 44.2577 186.308 44.0493C186.698 43.8408 187.011 43.5281 187.246 43.1111C187.491 42.6942 187.613 42.1866 187.613 41.5884C187.613 40.9901 187.495 40.4825 187.26 40.0656C187.024 39.6486 186.716 39.3405 186.335 39.1411C185.955 38.9326 185.542 38.8283 185.098 38.8283C184.645 38.8283 184.228 38.9326 183.847 39.1411C183.476 39.3405 183.176 39.6486 182.95 40.0656C182.723 40.4825 182.61 40.9901 182.61 41.5884C182.61 42.1957 182.719 42.7078 182.936 43.1247C183.163 43.5417 183.462 43.8544 183.834 44.0629C184.205 44.2623 184.613 44.362 185.057 44.362ZM190.899 45.4089C190.663 45.4089 190.464 45.3273 190.301 45.1641C190.137 45.001 190.056 44.8016 190.056 44.5659C190.056 44.3302 190.137 44.1308 190.301 43.9677C190.464 43.8045 190.663 43.723 190.899 43.723C191.125 43.723 191.316 43.8045 191.47 43.9677C191.633 44.1308 191.715 44.3302 191.715 44.5659C191.715 44.8016 191.633 45.001 191.47 45.1641C191.316 45.3273 191.125 45.4089 190.899 45.4089Z" fill="black"/>
</svg>
